<svg xmlns="http://www.w3.org/2000/svg" width="2240" height="1856" viewBox="0 0 2240 1856">
<path d="M 1516 1283 L 1496 1278 L 1439 1278 L 1437 1282 L 1437 1397 L 1438 1398 L 1438 1408 L 1453 1408 L 1455 1407 L 1454 1370 L 1457 1367 L 1461 1365 L 1470 1365 L 1471 1366 L 1497 1366 L 1498 1365 L 1504 1365 L 1507 1363 L 1512 1363 L 1520 1359 L 1523 1356 L 1526 1355 L 1532 1349 L 1533 1345 L 1537 1340 L 1539 1332 L 1539 1315 L 1538 1314 L 1538 1310 L 1536 1307 L 1536 1304 L 1533 1300 L 1533 1298 L 1529 1293 L 1520 1286 L 1518 1286 Z M 1455 1296 L 1461 1292 L 1487 1292 L 1488 1293 L 1501 1293 L 1504 1295 L 1507 1295 L 1510 1299 L 1515 1302 L 1515 1304 L 1518 1306 L 1521 1312 L 1522 1328 L 1520 1332 L 1520 1335 L 1518 1336 L 1516 1341 L 1509 1347 L 1501 1350 L 1495 1350 L 1494 1351 L 1460 1351 L 1456 1349 L 1454 1343 L 1455 1339 L 1455 1331 L 1454 1330 L 1455 1322 L 1454 1321 L 1455 1304 L 1454 1303 L 1454 1299 Z M 1252 1279 L 1251 1280 L 1251 1287 L 1250 1288 L 1251 1364 L 1254 1376 L 1256 1379 L 1256 1383 L 1261 1392 L 1268 1400 L 1278 1407 L 1280 1407 L 1286 1411 L 1290 1411 L 1296 1413 L 1303 1413 L 1304 1414 L 1318 1413 L 1332 1409 L 1336 1406 L 1340 1405 L 1347 1399 L 1357 1385 L 1362 1371 L 1362 1365 L 1363 1364 L 1363 1338 L 1364 1337 L 1363 1280 L 1355 1278 L 1354 1279 L 1347 1279 L 1346 1281 L 1346 1295 L 1347 1296 L 1347 1353 L 1348 1357 L 1345 1369 L 1340 1378 L 1340 1380 L 1328 1392 L 1325 1394 L 1322 1394 L 1316 1398 L 1299 1398 L 1296 1397 L 1293 1394 L 1288 1394 L 1286 1391 L 1278 1385 L 1272 1377 L 1272 1374 L 1270 1371 L 1270 1367 L 1269 1366 L 1269 1352 L 1268 1351 L 1268 1291 L 1269 1290 L 1269 1280 L 1261 1278 Z M 885 1278 L 882 1281 L 882 1397 L 883 1398 L 882 1405 L 883 1407 L 885 1407 L 887 1409 L 893 1409 L 900 1407 L 900 1367 L 903 1363 L 906 1362 L 935 1362 L 943 1369 L 945 1374 L 949 1378 L 950 1382 L 954 1386 L 956 1391 L 962 1398 L 962 1401 L 970 1410 L 986 1410 L 987 1406 L 970 1383 L 969 1380 L 967 1379 L 966 1375 L 960 1368 L 959 1365 L 959 1361 L 961 1359 L 968 1357 L 971 1354 L 973 1354 L 976 1351 L 978 1351 L 979 1348 L 982 1346 L 985 1341 L 985 1338 L 987 1336 L 987 1332 L 989 1329 L 989 1312 L 988 1311 L 988 1307 L 986 1304 L 986 1301 L 983 1296 L 974 1287 L 972 1287 L 969 1284 L 964 1283 L 959 1280 L 934 1279 L 933 1278 L 917 1278 L 916 1279 Z M 901 1296 L 906 1293 L 945 1293 L 957 1296 L 966 1302 L 966 1304 L 971 1311 L 972 1328 L 970 1330 L 968 1336 L 963 1342 L 960 1343 L 957 1346 L 953 1346 L 950 1348 L 904 1348 L 902 1347 L 899 1343 L 899 1314 L 900 1313 L 900 1298 Z M 1100 1277 L 1097 1278 L 1094 1281 L 1089 1281 L 1083 1286 L 1081 1286 L 1078 1290 L 1074 1291 L 1060 1308 L 1057 1316 L 1053 1321 L 1052 1328 L 1050 1332 L 1050 1354 L 1052 1360 L 1052 1365 L 1056 1375 L 1060 1380 L 1060 1382 L 1063 1385 L 1064 1388 L 1079 1403 L 1084 1404 L 1089 1408 L 1092 1408 L 1095 1410 L 1102 1411 L 1106 1413 L 1129 1413 L 1130 1412 L 1134 1412 L 1137 1410 L 1141 1410 L 1146 1408 L 1150 1405 L 1153 1405 L 1159 1400 L 1161 1400 L 1177 1381 L 1177 1379 L 1182 1371 L 1182 1368 L 1184 1365 L 1187 1352 L 1187 1336 L 1186 1335 L 1186 1330 L 1183 1318 L 1181 1317 L 1181 1314 L 1178 1311 L 1176 1305 L 1160 1288 L 1154 1286 L 1153 1284 L 1151 1284 L 1145 1280 L 1141 1280 L 1139 1278 L 1130 1277 L 1129 1276 L 1107 1276 L 1106 1277 Z M 1102 1293 L 1108 1293 L 1110 1291 L 1131 1292 L 1134 1294 L 1137 1294 L 1145 1299 L 1147 1299 L 1160 1312 L 1161 1315 L 1163 1316 L 1163 1319 L 1167 1326 L 1168 1337 L 1169 1338 L 1169 1351 L 1168 1352 L 1168 1358 L 1166 1365 L 1161 1375 L 1151 1386 L 1148 1387 L 1143 1392 L 1141 1392 L 1133 1397 L 1128 1397 L 1127 1398 L 1108 1398 L 1101 1394 L 1097 1394 L 1084 1385 L 1078 1379 L 1070 1365 L 1068 1357 L 1068 1347 L 1067 1346 L 1069 1327 L 1080 1308 L 1083 1305 L 1085 1305 L 1088 1300 L 1098 1295 L 1100 1295 Z M 742 1277 L 724 1284 L 723 1286 L 718 1288 L 717 1290 L 711 1294 L 706 1301 L 704 1302 L 702 1307 L 698 1312 L 693 1324 L 690 1336 L 690 1356 L 693 1368 L 695 1371 L 695 1374 L 700 1381 L 702 1387 L 707 1391 L 709 1395 L 713 1397 L 715 1401 L 717 1401 L 723 1406 L 727 1407 L 731 1410 L 744 1412 L 746 1414 L 754 1414 L 755 1415 L 773 1414 L 779 1411 L 783 1411 L 795 1407 L 803 1403 L 804 1401 L 807 1400 L 812 1394 L 812 1344 L 811 1342 L 759 1342 L 758 1344 L 758 1354 L 762 1357 L 793 1357 L 796 1359 L 797 1361 L 797 1383 L 793 1390 L 783 1395 L 780 1395 L 778 1397 L 774 1397 L 770 1399 L 746 1398 L 744 1396 L 736 1395 L 730 1389 L 725 1388 L 715 1377 L 714 1373 L 711 1370 L 711 1367 L 709 1365 L 708 1350 L 707 1349 L 708 1332 L 710 1328 L 710 1325 L 714 1316 L 727 1301 L 729 1301 L 732 1298 L 740 1295 L 742 1293 L 747 1293 L 748 1292 L 772 1292 L 773 1293 L 779 1293 L 781 1295 L 785 1295 L 789 1299 L 792 1299 L 797 1304 L 801 1304 L 805 1300 L 808 1295 L 808 1293 L 796 1284 L 775 1277 L 769 1277 L 768 1276 L 747 1276 L 746 1277 Z M 9 885 L 9 1153 L 10 1155 L 149 1155 L 154 1153 L 164 1153 L 168 1151 L 179 1149 L 186 1145 L 189 1145 L 196 1139 L 198 1139 L 214 1123 L 215 1119 L 218 1117 L 219 1113 L 221 1111 L 226 1095 L 227 1075 L 226 1074 L 225 1062 L 221 1056 L 221 1053 L 217 1044 L 215 1043 L 212 1037 L 207 1031 L 198 1026 L 195 1022 L 192 1022 L 185 1018 L 183 1018 L 180 1015 L 180 1009 L 185 1006 L 198 993 L 204 982 L 207 972 L 207 966 L 209 958 L 209 945 L 207 942 L 205 930 L 202 926 L 201 922 L 199 921 L 197 915 L 194 913 L 193 910 L 189 906 L 174 895 L 169 894 L 166 891 L 162 891 L 157 888 L 151 888 L 148 886 L 139 886 L 138 885 L 92 885 L 91 886 L 72 886 L 71 885 L 64 885 L 63 886 Z M 51 1041 L 53 1037 L 56 1035 L 136 1035 L 137 1036 L 149 1036 L 151 1038 L 159 1040 L 162 1043 L 164 1043 L 177 1056 L 181 1066 L 181 1072 L 182 1073 L 181 1087 L 176 1097 L 166 1108 L 164 1108 L 162 1111 L 159 1111 L 157 1113 L 147 1117 L 140 1117 L 139 1118 L 56 1118 L 51 1113 L 51 1097 L 52 1096 L 52 1071 L 51 1070 L 51 1066 L 52 1065 L 51 1061 L 52 1058 L 52 1046 L 51 1045 Z M 52 929 L 56 925 L 129 925 L 130 926 L 145 927 L 159 938 L 166 950 L 166 970 L 164 976 L 158 985 L 153 990 L 150 990 L 147 994 L 140 995 L 137 998 L 91 999 L 90 1000 L 87 999 L 58 999 L 54 997 L 51 992 L 51 978 L 52 977 Z M 2171 884 L 2169 885 L 2170 889 L 2170 1152 L 2171 1153 L 2187 1153 L 2188 1154 L 2193 1154 L 2194 1153 L 2211 1154 L 2214 1152 L 2214 1136 L 2213 1135 L 2213 884 Z M 1738 886 L 1739 889 L 1739 909 L 1738 910 L 1738 929 L 1739 930 L 1739 935 L 1738 936 L 1738 945 L 1739 946 L 1738 949 L 1738 977 L 1739 978 L 1739 985 L 1738 986 L 1738 1039 L 1739 1040 L 1738 1043 L 1738 1075 L 1739 1076 L 1738 1080 L 1738 1091 L 1739 1092 L 1738 1095 L 1738 1099 L 1739 1100 L 1739 1104 L 1738 1105 L 1738 1126 L 1739 1127 L 1738 1139 L 1739 1140 L 1739 1146 L 1738 1147 L 1738 1152 L 1739 1154 L 1780 1154 L 1782 1152 L 1782 1017 L 1781 1016 L 1782 1013 L 1781 1010 L 1782 999 L 1781 998 L 1781 971 L 1782 970 L 1782 966 L 1785 963 L 1789 964 L 1792 967 L 1792 969 L 1797 973 L 1798 977 L 1802 981 L 1806 992 L 1809 994 L 1809 997 L 1814 1003 L 1816 1010 L 1819 1012 L 1821 1019 L 1826 1025 L 1829 1033 L 1832 1035 L 1832 1038 L 1837 1044 L 1838 1049 L 1842 1052 L 1843 1057 L 1847 1061 L 1847 1065 L 1851 1069 L 1851 1072 L 1855 1076 L 1855 1079 L 1858 1082 L 1859 1085 L 1861 1086 L 1862 1090 L 1865 1093 L 1871 1103 L 1883 1103 L 1897 1084 L 1897 1082 L 1900 1079 L 1903 1074 L 1903 1072 L 1907 1069 L 1907 1066 L 1910 1063 L 1910 1061 L 1913 1058 L 1913 1056 L 1915 1055 L 1917 1050 L 1921 1045 L 1921 1043 L 1925 1039 L 1925 1037 L 1927 1036 L 1928 1032 L 1933 1026 L 1933 1024 L 1936 1019 L 1940 1015 L 1940 1012 L 1943 1009 L 1943 1007 L 1948 1000 L 1949 996 L 1951 995 L 1951 992 L 1957 986 L 1957 983 L 1964 970 L 1966 968 L 1970 967 L 1974 971 L 1974 1107 L 1973 1108 L 1973 1117 L 1974 1118 L 1974 1152 L 1978 1154 L 1985 1154 L 1986 1153 L 1989 1154 L 1996 1154 L 1997 1153 L 2009 1154 L 2010 1153 L 2015 1153 L 2016 1151 L 2016 1147 L 2015 1146 L 2015 1141 L 2016 1140 L 2016 1131 L 2015 1130 L 2015 1126 L 2016 1125 L 2015 1121 L 2015 890 L 2016 889 L 2016 885 L 2015 884 L 1967 884 L 1964 887 L 1963 893 L 1956 900 L 1956 903 L 1953 906 L 1951 910 L 1951 913 L 1946 920 L 1946 923 L 1942 926 L 1942 930 L 1939 933 L 1938 938 L 1933 942 L 1933 945 L 1930 949 L 1929 954 L 1926 956 L 1926 959 L 1923 961 L 1919 969 L 1916 972 L 1916 975 L 1913 978 L 1911 985 L 1904 994 L 1902 999 L 1900 1000 L 1899 1005 L 1896 1007 L 1895 1010 L 1892 1013 L 1892 1017 L 1887 1022 L 1887 1024 L 1882 1033 L 1877 1037 L 1875 1037 L 1869 1031 L 1868 1026 L 1866 1023 L 1866 1020 L 1863 1017 L 1863 1014 L 1861 1014 L 1859 1012 L 1859 1008 L 1858 1005 L 1855 1002 L 1855 999 L 1852 997 L 1852 994 L 1850 992 L 1849 988 L 1847 987 L 1847 985 L 1844 982 L 1844 979 L 1841 976 L 1840 972 L 1836 969 L 1836 965 L 1833 963 L 1832 958 L 1827 954 L 1827 951 L 1824 948 L 1824 945 L 1821 942 L 1821 938 L 1815 931 L 1815 927 L 1804 911 L 1800 901 L 1795 896 L 1795 892 L 1792 889 L 1792 887 L 1788 884 L 1740 884 Z M 350 884 L 349 885 L 349 1043 L 350 1044 L 350 1059 L 352 1063 L 352 1070 L 354 1074 L 356 1087 L 358 1090 L 358 1095 L 361 1099 L 362 1103 L 365 1106 L 365 1110 L 367 1112 L 367 1114 L 370 1116 L 372 1121 L 374 1122 L 381 1131 L 391 1139 L 395 1140 L 401 1146 L 403 1146 L 410 1150 L 434 1157 L 463 1158 L 464 1159 L 467 1158 L 493 1157 L 497 1155 L 501 1155 L 504 1153 L 508 1153 L 511 1151 L 515 1151 L 519 1148 L 526 1146 L 533 1140 L 535 1140 L 537 1137 L 541 1136 L 557 1120 L 557 1118 L 566 1106 L 568 1098 L 571 1095 L 571 1092 L 573 1089 L 573 1085 L 575 1081 L 575 1077 L 577 1071 L 578 1041 L 579 1040 L 579 898 L 578 897 L 579 885 L 578 884 L 536 884 L 535 885 L 535 892 L 536 893 L 536 1056 L 533 1061 L 531 1075 L 529 1077 L 527 1083 L 525 1084 L 524 1089 L 521 1091 L 516 1099 L 513 1100 L 504 1109 L 500 1110 L 498 1113 L 491 1114 L 488 1116 L 476 1117 L 475 1118 L 445 1118 L 443 1116 L 436 1115 L 433 1112 L 421 1106 L 411 1096 L 404 1086 L 403 1082 L 401 1081 L 401 1078 L 399 1075 L 399 1071 L 397 1068 L 397 1063 L 395 1057 L 395 1050 L 394 1049 L 394 944 L 393 943 L 393 937 L 394 936 L 393 933 L 394 930 L 394 906 L 393 905 L 394 901 L 394 886 L 390 884 L 383 884 L 382 885 Z M 1403 885 L 1404 889 L 1404 928 L 1403 929 L 1403 936 L 1404 937 L 1403 941 L 1403 963 L 1404 964 L 1403 967 L 1403 989 L 1404 990 L 1404 1010 L 1403 1013 L 1404 1014 L 1404 1035 L 1403 1036 L 1403 1148 L 1402 1152 L 1404 1154 L 1584 1154 L 1585 1153 L 1603 1154 L 1604 1151 L 1604 1133 L 1603 1132 L 1603 1119 L 1604 1116 L 1600 1116 L 1599 1115 L 1448 1115 L 1444 1111 L 1445 1039 L 1448 1035 L 1450 1034 L 1453 1035 L 1576 1035 L 1578 1033 L 1578 998 L 1573 996 L 1569 996 L 1568 997 L 1564 997 L 1563 996 L 1555 996 L 1554 997 L 1550 997 L 1549 996 L 1542 996 L 1541 997 L 1482 997 L 1481 996 L 1475 996 L 1474 997 L 1470 996 L 1449 997 L 1447 996 L 1444 992 L 1444 979 L 1445 978 L 1444 974 L 1444 962 L 1445 961 L 1444 957 L 1444 948 L 1445 947 L 1444 944 L 1444 934 L 1445 933 L 1445 928 L 1449 924 L 1489 924 L 1490 925 L 1540 925 L 1541 924 L 1586 924 L 1589 925 L 1590 924 L 1599 924 L 1601 922 L 1600 918 L 1600 889 L 1601 885 L 1599 884 L 1591 884 L 1590 883 L 1572 883 L 1571 884 L 1546 884 L 1545 883 L 1536 883 L 1535 884 L 1484 883 L 1483 884 L 1478 884 L 1474 883 L 1473 884 L 1405 884 Z M 1150 878 L 1149 879 L 1139 880 L 1137 882 L 1122 884 L 1116 887 L 1112 887 L 1108 891 L 1100 892 L 1098 894 L 1094 895 L 1091 898 L 1089 898 L 1087 901 L 1085 901 L 1076 908 L 1056 928 L 1050 936 L 1047 944 L 1043 947 L 1041 951 L 1040 957 L 1038 958 L 1038 961 L 1036 963 L 1036 967 L 1033 971 L 1032 979 L 1030 982 L 1027 995 L 1027 1001 L 1026 1002 L 1027 1038 L 1028 1039 L 1028 1044 L 1030 1047 L 1030 1055 L 1034 1072 L 1038 1079 L 1038 1081 L 1040 1083 L 1040 1086 L 1044 1091 L 1046 1097 L 1056 1109 L 1056 1111 L 1068 1123 L 1074 1127 L 1077 1131 L 1083 1133 L 1086 1136 L 1089 1136 L 1094 1139 L 1096 1142 L 1100 1143 L 1102 1145 L 1110 1147 L 1114 1150 L 1125 1151 L 1130 1154 L 1144 1155 L 1145 1156 L 1186 1155 L 1189 1153 L 1204 1151 L 1206 1149 L 1213 1148 L 1217 1145 L 1220 1145 L 1223 1142 L 1227 1141 L 1232 1137 L 1236 1136 L 1238 1133 L 1240 1133 L 1247 1129 L 1256 1120 L 1259 1119 L 1259 1117 L 1262 1115 L 1263 1112 L 1262 1104 L 1255 1098 L 1255 1096 L 1248 1091 L 1247 1088 L 1245 1088 L 1242 1085 L 1238 1085 L 1231 1091 L 1228 1092 L 1222 1098 L 1218 1099 L 1217 1101 L 1210 1104 L 1209 1106 L 1206 1106 L 1200 1110 L 1197 1110 L 1195 1112 L 1192 1112 L 1189 1114 L 1183 1114 L 1175 1116 L 1146 1116 L 1144 1114 L 1136 1113 L 1133 1111 L 1124 1109 L 1121 1106 L 1119 1106 L 1113 1101 L 1111 1101 L 1109 1098 L 1107 1098 L 1105 1095 L 1102 1094 L 1093 1085 L 1093 1083 L 1085 1075 L 1085 1073 L 1080 1066 L 1079 1062 L 1077 1060 L 1077 1057 L 1075 1055 L 1075 1051 L 1072 1045 L 1072 1039 L 1070 1031 L 1070 1022 L 1069 1021 L 1069 1006 L 1070 1005 L 1070 1000 L 1072 996 L 1073 986 L 1077 979 L 1077 976 L 1082 966 L 1085 963 L 1085 960 L 1093 950 L 1095 949 L 1096 946 L 1104 940 L 1106 937 L 1109 936 L 1111 933 L 1115 932 L 1117 929 L 1122 928 L 1126 925 L 1137 922 L 1139 920 L 1145 920 L 1153 918 L 1169 918 L 1170 919 L 1186 920 L 1196 924 L 1199 924 L 1200 926 L 1207 927 L 1210 930 L 1215 931 L 1217 934 L 1222 935 L 1226 940 L 1230 941 L 1239 950 L 1242 950 L 1245 948 L 1254 939 L 1262 929 L 1263 923 L 1262 919 L 1251 908 L 1245 906 L 1243 904 L 1243 902 L 1234 899 L 1231 895 L 1224 893 L 1214 887 L 1182 879 Z M 784 879 L 782 881 L 777 881 L 775 883 L 768 884 L 764 888 L 760 888 L 757 892 L 754 892 L 747 897 L 731 914 L 731 917 L 728 920 L 728 922 L 726 924 L 726 927 L 724 929 L 722 935 L 722 943 L 721 944 L 721 967 L 724 976 L 724 981 L 726 983 L 729 992 L 733 996 L 733 998 L 744 1010 L 747 1011 L 757 1019 L 761 1020 L 765 1023 L 772 1024 L 775 1027 L 779 1027 L 789 1031 L 802 1033 L 804 1035 L 811 1035 L 815 1037 L 819 1037 L 821 1039 L 828 1039 L 831 1042 L 838 1043 L 847 1048 L 850 1051 L 857 1054 L 869 1068 L 871 1074 L 870 1089 L 868 1095 L 864 1101 L 856 1109 L 854 1109 L 846 1114 L 842 1114 L 837 1117 L 833 1117 L 832 1118 L 829 1117 L 826 1118 L 808 1118 L 804 1116 L 796 1115 L 793 1113 L 786 1112 L 771 1106 L 768 1106 L 766 1104 L 764 1104 L 763 1102 L 755 1099 L 748 1094 L 747 1092 L 738 1088 L 735 1084 L 729 1083 L 725 1086 L 725 1088 L 719 1094 L 717 1100 L 713 1103 L 713 1105 L 710 1109 L 710 1113 L 712 1117 L 720 1125 L 734 1135 L 743 1139 L 748 1143 L 751 1143 L 757 1147 L 763 1148 L 766 1150 L 773 1151 L 780 1154 L 787 1154 L 788 1155 L 810 1157 L 811 1158 L 825 1158 L 826 1157 L 835 1157 L 836 1156 L 844 1156 L 849 1154 L 853 1154 L 857 1152 L 864 1151 L 869 1148 L 872 1148 L 875 1145 L 877 1145 L 883 1140 L 886 1139 L 888 1136 L 891 1135 L 899 1127 L 900 1124 L 903 1122 L 903 1120 L 909 1112 L 909 1109 L 912 1101 L 913 1088 L 914 1087 L 913 1060 L 911 1057 L 909 1048 L 905 1043 L 901 1035 L 893 1027 L 893 1025 L 890 1025 L 884 1019 L 880 1018 L 870 1011 L 866 1011 L 859 1007 L 856 1007 L 854 1005 L 842 1002 L 837 999 L 829 998 L 827 996 L 815 994 L 813 992 L 808 992 L 806 990 L 802 990 L 800 988 L 794 987 L 792 985 L 787 984 L 776 978 L 767 969 L 767 967 L 765 965 L 765 960 L 764 959 L 765 941 L 770 934 L 770 932 L 773 929 L 775 929 L 779 924 L 783 923 L 786 920 L 789 920 L 792 917 L 800 915 L 824 915 L 825 916 L 830 916 L 832 918 L 841 919 L 843 921 L 850 923 L 852 925 L 858 926 L 861 929 L 865 930 L 870 934 L 876 936 L 881 941 L 885 941 L 888 939 L 888 937 L 901 921 L 901 919 L 905 913 L 905 910 L 897 902 L 895 902 L 887 896 L 884 896 L 881 893 L 875 891 L 872 888 L 868 888 L 866 886 L 861 886 L 857 883 L 847 882 L 844 880 L 835 879 L 834 878 L 792 878 L 791 879 Z M 994 504 L 991 502 L 989 498 L 977 486 L 973 484 L 969 478 L 966 476 L 966 474 L 962 472 L 961 469 L 958 468 L 954 464 L 954 462 L 951 461 L 949 457 L 940 448 L 937 447 L 937 444 L 933 440 L 931 440 L 929 436 L 925 435 L 922 438 L 919 439 L 904 455 L 904 457 L 900 459 L 898 463 L 894 465 L 891 470 L 889 470 L 884 476 L 882 476 L 878 482 L 874 484 L 872 488 L 862 497 L 861 500 L 856 502 L 856 504 L 843 515 L 840 520 L 835 523 L 834 526 L 830 530 L 828 530 L 827 533 L 824 534 L 818 541 L 815 542 L 810 547 L 810 550 L 811 551 L 875 551 L 876 550 L 912 550 L 915 549 L 916 550 L 943 550 L 944 551 L 949 551 L 957 548 L 960 544 L 967 539 L 968 536 L 985 519 L 987 519 L 988 516 L 992 513 L 994 509 Z M 1349 6 L 1336 18 L 1335 21 L 1333 21 L 1324 30 L 1324 33 L 1321 34 L 1321 36 L 1317 39 L 1317 41 L 1314 42 L 1307 50 L 1305 50 L 1305 53 L 1301 55 L 1301 57 L 1298 58 L 1295 62 L 1293 62 L 1291 67 L 1288 68 L 1286 70 L 1286 72 L 1282 74 L 1278 78 L 1278 80 L 1264 94 L 1262 94 L 1258 101 L 1255 102 L 1254 105 L 1251 106 L 1249 110 L 1246 110 L 1246 112 L 1243 114 L 1242 117 L 1239 118 L 1238 121 L 1233 126 L 1231 126 L 1228 131 L 1226 131 L 1224 136 L 1222 138 L 1220 138 L 1215 143 L 1214 146 L 1212 146 L 1209 150 L 1207 150 L 1206 153 L 1201 158 L 1199 158 L 1198 161 L 1193 166 L 1191 166 L 1190 169 L 1187 171 L 1187 173 L 1184 174 L 1181 179 L 1178 179 L 1178 181 L 1173 186 L 1171 186 L 1171 188 L 1169 190 L 1167 190 L 1165 194 L 1162 195 L 1162 197 L 1159 199 L 1159 201 L 1156 202 L 1152 207 L 1150 207 L 1149 211 L 1147 211 L 1145 214 L 1143 214 L 1142 218 L 1138 219 L 1138 221 L 1134 223 L 1134 226 L 1130 230 L 1127 231 L 1127 233 L 1121 239 L 1118 240 L 1118 243 L 1115 244 L 1114 247 L 1110 251 L 1107 251 L 1106 255 L 1104 257 L 1101 257 L 1100 261 L 1097 262 L 1094 267 L 1091 267 L 1090 271 L 1087 274 L 1085 274 L 1084 277 L 1080 279 L 1079 282 L 1076 283 L 1075 286 L 1072 287 L 1071 290 L 1069 292 L 1067 292 L 1064 295 L 1064 297 L 1058 303 L 1055 304 L 1055 306 L 1052 309 L 1049 310 L 1048 313 L 1046 315 L 1044 315 L 1042 317 L 1042 319 L 1039 320 L 1032 329 L 1026 333 L 1025 336 L 1022 337 L 1022 339 L 1020 341 L 1017 342 L 1013 347 L 1010 348 L 1010 350 L 1008 351 L 1006 355 L 1003 356 L 999 363 L 992 367 L 991 370 L 985 374 L 982 379 L 978 380 L 978 382 L 968 392 L 967 396 L 981 411 L 984 412 L 1001 429 L 1002 432 L 1007 435 L 1008 438 L 1011 439 L 1018 446 L 1019 449 L 1024 452 L 1025 455 L 1035 464 L 1040 463 L 1046 458 L 1046 456 L 1048 454 L 1051 453 L 1051 451 L 1081 421 L 1083 421 L 1086 416 L 1112 390 L 1115 389 L 1115 387 L 1118 385 L 1119 382 L 1122 381 L 1134 367 L 1142 361 L 1154 349 L 1161 340 L 1176 325 L 1178 325 L 1179 322 L 1203 298 L 1210 293 L 1210 291 L 1237 265 L 1239 261 L 1241 261 L 1245 257 L 1245 255 L 1247 253 L 1249 253 L 1249 251 L 1253 248 L 1253 246 L 1256 245 L 1257 242 L 1260 241 L 1262 239 L 1262 237 L 1275 224 L 1277 220 L 1277 216 L 1269 208 L 1263 206 L 1257 201 L 1257 194 L 1261 191 L 1269 190 L 1270 189 L 1285 189 L 1292 187 L 1304 187 L 1306 185 L 1314 183 L 1320 183 L 1326 189 L 1326 213 L 1325 214 L 1323 249 L 1319 254 L 1315 254 L 1306 247 L 1306 245 L 1303 243 L 1300 237 L 1296 235 L 1296 233 L 1289 235 L 1286 239 L 1286 241 L 1280 248 L 1280 252 L 1277 254 L 1277 257 L 1275 259 L 1274 263 L 1271 265 L 1269 271 L 1266 274 L 1266 277 L 1263 279 L 1260 288 L 1257 290 L 1254 302 L 1250 306 L 1248 314 L 1241 325 L 1241 328 L 1237 334 L 1236 341 L 1233 344 L 1233 348 L 1231 350 L 1230 355 L 1227 358 L 1227 362 L 1223 369 L 1224 372 L 1224 383 L 1223 384 L 1224 387 L 1224 592 L 1242 611 L 1247 614 L 1247 616 L 1252 620 L 1258 628 L 1264 634 L 1267 635 L 1269 639 L 1273 643 L 1276 644 L 1280 650 L 1315 685 L 1315 687 L 1318 688 L 1320 692 L 1323 693 L 1324 696 L 1330 700 L 1336 708 L 1347 719 L 1353 720 L 1354 718 L 1353 715 L 1353 12 L 1354 11 L 1354 7 L 1353 6 Z" fill="#0e3e24" fill-rule="evenodd"/>
<path d="M 697 1497 L 697 1513 L 700 1515 L 1286 1515 L 1289 1516 L 1290 1515 L 1526 1515 L 1529 1513 L 1529 1498 L 1527 1494 L 1525 1493 L 1512 1493 L 1511 1494 L 1507 1493 L 1396 1493 L 1395 1494 L 1391 1493 L 862 1493 L 861 1494 L 853 1493 L 852 1494 L 844 1494 L 843 1493 L 814 1493 L 813 1494 L 742 1494 L 741 1493 L 733 1493 L 730 1494 L 726 1493 L 725 1494 L 698 1494 Z M 900 1314 L 900 1343 L 903 1344 L 902 1341 L 903 1338 L 902 1314 Z M 1971 1118 L 1971 1148 L 1973 1148 L 1973 1118 Z M 1971 1064 L 1971 1107 L 1973 1107 L 1973 1064 Z M 1782 1002 L 1782 1010 L 1783 1011 L 1782 1014 L 1783 1017 L 1783 1145 L 1785 1145 L 1785 1004 L 1784 1002 Z M 1482 994 L 1482 996 L 1541 996 L 1541 994 Z M 1787 964 L 1785 964 L 1783 966 L 1783 970 L 1782 971 L 1782 998 L 1784 998 L 1784 970 L 1787 966 Z M 1558 925 L 1558 927 L 1586 927 L 1586 925 Z M 1449 925 L 1449 927 L 1489 927 L 1489 925 Z M 533 897 L 533 923 L 535 923 L 535 897 Z M 2214 896 L 2214 1135 L 2216 1135 L 2216 896 Z M 1601 889 L 1601 918 L 1603 918 L 1603 889 Z M 1401 889 L 1401 928 L 1403 928 L 1403 889 Z M 545 881 L 545 883 L 577 883 L 577 881 Z M 1224 632 L 1223 633 L 1223 650 L 1222 651 L 1223 727 L 1224 728 L 1234 728 L 1235 729 L 1239 728 L 1243 729 L 1277 729 L 1278 728 L 1311 728 L 1315 727 L 1315 724 L 1305 714 L 1305 712 L 1273 680 L 1273 678 L 1266 673 L 1265 670 L 1259 665 L 1258 662 L 1234 639 L 1233 636 L 1229 632 Z M 989 599 L 984 597 L 981 601 L 978 601 L 976 605 L 973 608 L 971 608 L 970 611 L 967 612 L 966 615 L 961 618 L 957 622 L 956 625 L 951 628 L 950 631 L 948 633 L 946 633 L 934 645 L 934 647 L 932 649 L 930 649 L 915 665 L 911 667 L 911 669 L 905 675 L 902 676 L 899 681 L 896 682 L 896 684 L 892 687 L 892 689 L 890 691 L 886 693 L 886 695 L 884 697 L 880 698 L 878 703 L 875 706 L 872 707 L 870 711 L 868 713 L 866 713 L 861 718 L 861 720 L 858 724 L 856 724 L 856 728 L 857 729 L 920 729 L 921 728 L 930 728 L 931 729 L 985 729 L 989 726 L 989 611 L 988 610 Z M 804 695 L 808 695 L 827 677 L 828 674 L 855 647 L 860 644 L 860 642 L 875 628 L 883 618 L 885 618 L 920 583 L 922 579 L 925 579 L 925 574 L 804 574 L 803 575 L 803 584 L 802 585 L 803 588 L 803 685 L 804 686 L 803 693 Z M 888 551 L 888 553 L 939 553 L 939 551 L 916 551 L 915 550 L 912 551 Z M 1221 542 L 1221 591 L 1223 591 L 1223 542 Z M 1029 524 L 1028 526 L 1028 727 L 1030 728 L 1181 728 L 1183 726 L 1183 697 L 1184 696 L 1184 688 L 1183 687 L 1184 680 L 1182 674 L 1170 662 L 1168 662 L 1165 659 L 1165 657 L 1159 653 L 1157 648 L 1155 648 L 1141 635 L 1141 633 L 1137 631 L 1126 620 L 1125 617 L 1122 616 L 1108 601 L 1105 600 L 1100 595 L 1099 592 L 1093 587 L 1093 585 L 1090 584 L 1077 570 L 1071 566 L 1069 562 L 1053 547 L 1049 541 L 1035 527 L 1031 524 Z M 1183 396 L 1180 400 L 1174 404 L 1174 406 L 1172 408 L 1169 409 L 1167 413 L 1164 414 L 1163 418 L 1161 420 L 1159 420 L 1158 423 L 1154 425 L 1148 431 L 1148 433 L 1146 435 L 1143 436 L 1139 441 L 1137 441 L 1136 444 L 1131 447 L 1131 450 L 1127 452 L 1126 455 L 1122 457 L 1116 463 L 1116 465 L 1108 473 L 1106 473 L 1105 476 L 1103 478 L 1101 478 L 1100 481 L 1092 489 L 1089 490 L 1087 494 L 1083 496 L 1083 499 L 1078 503 L 1078 510 L 1118 549 L 1118 551 L 1125 556 L 1129 562 L 1134 565 L 1134 567 L 1142 573 L 1146 579 L 1152 583 L 1154 587 L 1158 589 L 1160 593 L 1165 597 L 1166 600 L 1169 601 L 1172 604 L 1173 607 L 1181 615 L 1186 616 L 1189 613 L 1189 573 L 1188 572 L 1188 516 L 1189 515 L 1189 502 L 1188 501 L 1188 408 L 1187 407 L 1187 397 Z" fill="#a09255" fill-rule="evenodd"/>
</svg>
